<?xml version="1.0" standalone="no"?> <!DOCTYPE svg PUBLIC "-//W3C//DTD SVG 1.0//EN" "http://www.w3.org/TR/2001/REC-SVG-20010904/DTD/svg10.dtd" > <svg xmlns="http://www.w3.org/2000/svg" width="100%" height="100%">
<defs >
<font id="lunchboxslab" horiz-adv-x="406" ><font-face
    font-family="LunchBoxSlab"
    units-per-em="1000"
    panose-1="2 0 0 0 0 0 0 0 0 0"
    ascent="750"
    descent="-250"
    alphabetic="0" />
<missing-glyph horiz-adv-x="356" />
<glyph unicode=" " glyph-name="space" horiz-adv-x="257" />
<glyph unicode="!" glyph-name="exclam" horiz-adv-x="186" d="M43 704Q53 705 67 707T91 711T111 710T130 696Q135 690 137 682T141 666T142 647T140 630T138 613T136 599Q127 506 123 387Q121 353 117 300T112 228Q111 211 111 175T109 122L108 117Q91 113 51
116Q42 116 36 248Q34 273 34 327T33 421L26 540Q26 546 20 595T18 673T43 704ZM75 76Q78 76 82 76T96 73T113 65T125 50T131 27Q130 -2 89 -12Q64 -19 45 -11T29 24Q31 43 44 60T75 76Z" />
<glyph unicode="&quot;" glyph-name="quotedbl" horiz-adv-x="225" d="M102 709Q100 720 103 727Q105 731 105 733Q105 738 105 747T104 760Q102 780 104 785Q106 789 104 799Q104 807 110 808H131H147H151Q162 807 164 804T165 790Q159 768 163 755V748Q162 744
163 735T161 721L162 719Q166 708 156 707Q126 703 111 708Q108 709 102 709ZM74 703H48Q45 704 39 705T29 707Q29 712 26 722T23 738Q22 746 22 764V765Q22 766 21 767Q20 769 17 797Q17 806 24 806Q49 810 64 805Q69 804 73 798Q82 780 79 760Q78 749 74 722Q74
718 75 717Q79 711 74 703Z" />
<glyph unicode="#" glyph-name="numbersign" horiz-adv-x="660" d="M483 462Q481 412 481 388Q481 380 481 363T482 338L516 341Q543 341 556 340L568 342Q581 343 588 342T598 333Q602 317 602 281Q602 279 602 273T602 264T602 256T601 248T599 242T595 238T589
236Q578 237 557 239T525 242H486Q486 205 485 186Q482 151 484 106Q486 41 482 21Q483 24 482 25Q481 28 478 21Q475 14 478 14Q457 2 403 2Q388 14 387 43T391 91Q396 142 398 246Q346 250 320 250Q318 250 249 247Q249 245 252 104Q254 68 254 49Q257 12 255
6Q251 -3 222 1Q217 1 202 0T178 -1Q180 -1 180 0Q179 2 174 3Q170 10 170 27T169 47L167 85Q165 151 165 184Q165 226 164 247Q144 248 125 247Q76 245 66 248Q69 247 69 249Q69 251 64 254Q61 256 61 255Q60 254 61 252Q55 267 52 328Q60 343 81 344T114 341Q122
340 130 339T149 337T165 335V385Q165 417 167 481Q137 479 123 479Q97 477 85 477Q59 474 55 476T51 509Q51 515 51 531T51 554L53 553Q53 555 52 556Q57 560 70 561L83 562L110 564Q150 566 169 566Q171 598 171 613Q173 683 173 718Q173 784 171 797Q178 801
186 802T211 803T228 802Q230 802 243 803T264 804T277 797Q277 719 265 567Q283 566 318 566Q345 566 395 564L391 671Q390 700 391 728Q391 730 390 741T389 761T391 778T399 788Q414 794 450 794Q452 794 458 794T467 794T475 794T483 792T489 789T493 784T495
775Q495 758 492 727T489 682V585Q489 568 488 560L549 558Q595 558 604 560Q607 553 608 544T609 522T608 503Q608 501 609 488T609 467T604 454Q549 454 483 462ZM271 332Q329 331 399 334Q400 380 398 472Q347 479 284 482Q267 482 258 483Q250 385 249 336V332H271ZM482
17L481 16Q481 17 482 17ZM482 19V21V19ZM175 2Q174 2 174 3Q174 2 175 2Z" />
<glyph unicode="$" glyph-name="dollar" horiz-adv-x="450" d="M270 697Q295 690 325 665T373 611Q402 564 379 531Q362 507 321 503Q279 499 276 528Q275 535 277 544Q288 572 283 595T244 621Q243 601 243 561T243 501Q240 396 241 383V345Q257 327 282 301T318
259T340 224Q356 192 364 169T373 117T360 61Q338 17 297 -3Q289 -7 279 -10T262 -14L255 -15Q254 -40 254 -57Q256 -107 213 -107Q186 -107 178 -102T172 -71L175 -27Q161 -27 146 -23Q98 -11 59 33Q14 85 17 136Q18 163 34 183T77 205Q114 207 127 182T119 129Q96
100 117 79T174 54Q178 85 179 120T179 202T177 269Q162 286 132 316Q89 357 57 418T23 533Q22 571 36 603T72 654T115 687T152 704T167 707L166 763Q229 766 231 767Q234 763 235 748T238 718V705Q256 701 270 697ZM114 471Q116 467 128 448T156 409T175 394Q172
426 174 505T171 615Q164 614 155 611T131 598T108 573T99 531T114 471ZM248 225Q248 185 242 49Q278 62 288 75Q303 92 304 114T297 155T278 191T258 217T248 225Z" />
<glyph unicode="%" glyph-name="percent" horiz-adv-x="863" d="M181 358Q73 380 53 551Q42 639 77 711T177 788Q186 789 203 789Q274 793 324 704Q374 616 369 513Q362 400 288 365Q244 344 181 358ZM726 440Q762 420 783 389T808 314T812 239T805 159Q799 104
765 65T685 20T587 44Q539 77 519 182Q496 302 533 385Q579 490 700 450Q712 446 726 440ZM369 -2Q362 -25 297 -21Q249 -16 251 -6Q250 13 255 29T270 66T284 99Q311 169 411 455T515 768Q517 814 543 817Q613 824 629 808Q629 807 567 614T440 218T369 -2ZM192
440Q228 432 251 453T282 506T287 569Q275 694 203 700Q179 702 163 688T140 649T130 602T127 555Q127 554 127 552T128 548Q128 549 128 550L127 552Q127 550 127 547T128 542V548Q137 452 192 440ZM660 379Q634 379 618 356T596 309T589 258Q583 110 658 98Q713
84 728 208Q728 210 728 213T729 217Q732 226 731 252T726 307T705 357T660 379ZM729 234V215Q729 216 729 217V234Z" />
<glyph unicode="&amp;" glyph-name="ampersand" horiz-adv-x="565" d="M501 31Q530 21 546 -2T551 -54Q540 -85 508 -86T451 -70Q423 -52 397 -21T361 39Q350 34 332 22T304 6Q267 -15 227 -15Q155 -15 106 20T33 115Q-3 240 128 422Q122 436 100 478T71 549T71
613Q80 660 124 692T217 718Q268 711 290 674T309 589T283 496T232 423L351 210Q367 252 351 379H326L329 382L324 385Q307 424 309 439Q317 442 327 443T352 443T370 442Q384 442 415 445T463 448Q463 441 464 430T465 408T466 390L429 387Q441 356 440 261T414
110Q418 104 428 84T446 55Q452 48 461 44T483 37T501 31ZM173 635Q142 611 148 564T190 494Q200 498 224 542T239 612Q233 628 213 637T173 635ZM234 62Q279 73 309 113Q208 330 182 345Q167 327 137 247T116 128Q126 91 161 73T234 62Z" />
<glyph unicode="&apos;" glyph-name="quotesingle" horiz-adv-x="17" d="M-25 680Q-29 684 -34 735T-42 793Q-39 803 -27 809Q-21 806 1 809T34 806V765Q34 747 43 693Q45 685 15 681T-24 680H-25Z" />
<glyph unicode="(" glyph-name="parenleft" horiz-adv-x="303" d="M196 763Q176 701 165 631Q137 455 154 332Q178 153 212 71Q214 66 228 44T249 2T250 -26Q247 -31 240 -34T223 -37T205 -38T186 -39T173 -38Q162 -38 152 -25T136 1T123 35T115 59Q85 130 72
190Q47 306 52 484Q57 617 103 772Q106 783 112 817T126 869Q131 880 154 880T199 878T221 875Q227 880 205 795Q200 775 196 763Z" />
<glyph unicode=")" glyph-name="parenright" horiz-adv-x="297" d="M148 881Q156 857 175 814T199 760Q215 720 230 631Q254 467 242 327Q227 165 179 52Q178 48 174 36T166 16T157 -1T143 -16T126 -23Q104 -25 76 -21Q68 -20 64 -10T63 8Q91 98 115 186Q137 268
149 423Q152 459 148 495T133 589T119 662Q110 719 89 775Q86 784 75 804T57 842T51 873Q80 883 148 881Z" />
<glyph unicode="*" glyph-name="asterisk" horiz-adv-x="375" d="M147 717Q142 717 141 716Q125 704 117 696Q106 686 102 687T90 699Q84 708 73 723T58 742L52 750Q46 763 58 772L93 794L100 801Q88 806 87 806L67 815Q56 821 58 832Q63 866 74 887Q78 896 89
893L111 886L123 883Q124 884 126 884Q131 901 131 914Q129 927 134 934Q135 934 137 935T141 936L200 942Q204 943 210 943Q221 942 223 930Q223 920 222 916Q220 902 227 882Q230 880 238 885L264 904Q275 913 285 903Q311 877 321 862Q329 851 321 841Q316 835
304 825L288 813Q286 811 280 804Q290 793 304 790Q310 788 316 784Q327 776 321 765Q307 732 300 723Q290 711 278 717Q268 721 248 733L233 740Q229 738 229 732Q227 706 227 694Q227 678 212 676Q175 672 159 671Q148 671 148 682Q147 694 147 717Z" />
<glyph unicode="+" glyph-name="plus" horiz-adv-x="432" d="M54 319Q50 364 51 387Q51 395 56 400T70 407T87 410T105 411T119 411L172 414Q157 520 174 531Q196 543 211 543T236 535L245 528L249 424Q249 420 260 418T288 416T322 415T355 416T375 417Q381 404
381 369T370 328Q323 320 255 322Q258 304 258 270T259 227Q260 216 259 209T254 199T246 196T234 195T219 194Q215 194 207 193T196 191T187 192T180 199T178 213Q178 229 178 270T176 322Q157 320 114 320T54 319Z" />
<glyph unicode="," glyph-name="comma" horiz-adv-x="194" d="M82 -8Q84 -7 86 -6T92 -4T100 -1Q114 5 115 23Q94 10 72 23T51 60Q53 81 74 91T116 90Q141 70 143 44Q145 3 120 -13Q96 -27 88 -25Q81 -13 82 -8Z" />
<glyph unicode="-" glyph-name="hyphen" horiz-adv-x="432" d="M339 392Q347 391 368 387Q371 387 377 383Q380 382 380 372Q382 328 382 307Q382 288 375 288Q360 288 353 289Q351 289 315 291T236 296T182 300Q168 301 132 301T82 301Q73 301 69 299Q67 298
54 301Q50 301 50 317Q50 326 50 336T50 358T50 378Q50 390 54 393Q56 394 60 394L129 392H339Z" />
<glyph unicode="." glyph-name="period" horiz-adv-x="182" d="M86 98Q120 103 129 70Q138 39 119 19Q104 5 81 12Q60 19 53 39T55 77T87 99Q86 98 83 98H86Z" />
<glyph unicode="/" glyph-name="slash" horiz-adv-x="483" d="M134 -8Q132 -8 116 -8T83 -10T59 -14Q59 -13 56 -10T51 -6Q50 17 195 413T350 814Q362 820 384 818Q446 814 428 774Q428 773 427 768T426 761Q420 735 281 365T134 -8Z" />
<glyph unicode="0" glyph-name="zero" horiz-adv-x="466" d="M381 399Q381 393 390 271Q394 225 388 133Q382 72 344 32Q311 -4 231 -13Q173 -21 118 5T47 86Q42 108 38 150T33 199L21 322Q21 344 19 402T16 501T22 582Q24 597 29 611T39 632T55 658Q77 695 155
701Q234 708 262 692Q267 689 277 684T295 674T309 664Q363 618 373 522Q379 482 381 399ZM255 74Q302 92 302 169Q302 269 297 319Q293 349 293 404T290 484Q289 500 285 529T280 565Q277 579 269 590T254 605L247 609Q183 610 131 593Q102 563 102 458Q101 422
105 357T110 273Q110 263 111 238T112 196T114 160T118 126T125 105Q130 101 138 95T150 86T161 80T178 75Q227 63 255 74Z" />
<glyph unicode="1" glyph-name="one" horiz-adv-x="243" d="M176 -2Q172 -8 134 -4Q110 -6 97 -6Q70 -9 66 -3Q64 -1 64 4T63 15T63 24T61 32T59 43Q75 46 107 46Q106 121 108 333T110 604L105 598Q81 563 73 567Q68 569 64 571T50 577T35 585T23 594T16 604T20
613Q24 618 40 642T71 687T89 710Q98 714 134 714T173 707Q174 651 178 500T183 282T179 50Q188 51 195 50Q194 44 202 26T209 5Q205 0 176 -2Z" />
<glyph unicode="2" glyph-name="two" horiz-adv-x="419" d="M348 106Q375 22 344 -1Q132 -8 33 4Q29 4 29 36T36 115T61 196Q83 246 139 311Q191 372 225 430Q266 501 272 537Q279 568 267 602T226 648Q189 661 156 635T132 570Q145 511 120 491Q100 476 70 483T27
511Q6 543 26 596T78 678Q118 712 169 717T262 696Q359 639 333 503Q322 441 281 379Q256 338 214 278T148 175T107 78Q109 85 266 85V91Q266 93 264 101T262 113Q264 120 274 121T299 122T316 121Q327 124 335 122T348 106Z" />
<glyph unicode="3" glyph-name="three" horiz-adv-x="448" d="M354 392Q369 357 370 281T360 170Q345 122 313 74Q283 33 238 12Q192 -9 143 3Q125 7 85 39Q56 60 40 88Q22 117 17 159Q14 188 33 223T81 262Q107 265 132 247T157 203Q157 196 156 192T150 184T142
178T132 173T122 169Q104 158 105 138T121 98T152 74Q192 65 221 86T264 148T284 225T290 294Q288 351 254 393T166 443Q156 444 119 445T61 452Q58 460 85 502T144 592T182 650Q178 649 169 649T144 650T128 651Q125 651 120 651T112 652T106 651T100 648T96 641Q94
635 95 631T96 622T87 615Q82 613 70 615T55 618T50 618T44 618T40 618T36 618T33 619T30 621T28 624T27 628T25 634Q17 672 21 697Q22 711 28 714T52 718L258 724Q287 724 298 714Q312 704 296 677Q284 658 264 624T227 561T192 510Q197 516 227 503T270 481Q276
478 288 470Q333 438 354 392Z" />
<glyph unicode="4" glyph-name="four" horiz-adv-x="469" d="M219 196V246Q191 252 109 250Q102 250 88 252T66 253Q25 249 20 254Q10 262 25 277Q32 284 36 298T44 319Q58 343 88 417Q96 437 113 472T135 519Q141 535 156 566T179 616T200 667T221 717Q233 744
246 748Q249 750 269 750T292 750Q296 718 296 682T296 602T295 533Q295 521 296 485T297 430Q296 418 295 396T292 355T291 320Q301 318 347 321T405 314Q405 310 406 301T408 286T409 273T406 260T399 251Q336 253 289 249Q280 192 286 48Q291 47 300 46T312
44Q312 41 312 34T313 21T314 9T310 0T302 -5Q296 -6 283 -5T267 -3H226Q222 -3 207 -1T184 1Q184 5 183 15T181 33T186 44Q190 46 203 46T217 47Q219 47 220 48Q216 50 217 94T218 143Q217 153 218 170T219 196ZM120 327Q153 319 221 321Q224 365 226 453Q226
556 227 566Q207 527 173 446T120 327Z" />
<glyph unicode="5" glyph-name="five" horiz-adv-x="422" d="M241 19Q200 -5 162 0Q107 5 66 53Q38 85 24 130T25 217Q35 239 68 249T131 247T159 205Q158 195 148 176T128 142T119 113T141 91Q138 91 132 93Q154 79 159 77Q184 70 209 82Q254 102 270 180T271
335T221 435Q191 448 172 444T123 432T73 426Q61 427 61 458Q61 459 59 554T58 659Q51 670 75 686Q119 682 203 691T295 700Q312 701 316 690T319 656Q319 655 319 653T320 648Q328 618 327 607Q326 597 323 595T310 592Q281 590 252 592Q252 611 248 623Q160 615
140 615Q134 615 131 613T128 610T127 604T126 596Q123 554 127 518Q137 520 161 526T195 533T222 532T260 519Q293 504 314 469T343 393T352 309T350 237Q331 68 241 19Z" />
<glyph unicode="6" glyph-name="six" horiz-adv-x="419" d="M210 3Q163 -11 114 18T41 95Q20 138 18 205T19 319Q19 338 18 398T19 499T29 577Q39 627 68 661T143 697Q215 699 259 662Q280 645 294 612T306 551Q303 528 280 516T231 503Q206 503 188 521T176 565Q177
569 186 581T198 601T194 616Q186 621 157 617Q133 615 119 600Q99 578 94 532T97 457Q107 460 120 466T141 475T166 480T200 477Q226 472 249 453T286 409Q289 404 292 398T296 386T299 374T302 361T303 349T304 336T304 324T304 311T304 298Q306 217 300 167Q289
28 210 3ZM101 146Q106 117 121 97T154 72T191 74T221 107T236 174Q236 183 238 206T240 244T241 281T237 319T227 351T210 376T182 390Q154 396 135 384T107 349T97 309T95 279Q96 263 96 213T101 146Z" />
<glyph unicode="7" glyph-name="seven" horiz-adv-x="462" d="M372 715Q378 711 381 698T386 682Q392 665 364 646Q347 634 323 605T287 565Q282 556 269 535T249 502Q233 464 222 429Q207 383 195 285Q182 175 181 137Q179 89 180 64Q180 58 183 42T187 17T182
-3Q177 -6 164 -7T146 -11Q135 -18 110 -13Q98 -2 100 18Q102 28 99 34Q97 34 97 42T97 53Q95 56 96 74T98 96Q98 108 94 112Q96 115 99 133Q106 242 118 313L124 358Q129 399 131 403Q138 420 148 451T162 494Q170 516 180 531Q182 535 189 551T202 575Q208 584
222 611Q225 616 234 627T247 646H141Q116 646 103 647Q106 636 103 629Q99 622 53 618Q34 616 30 619T24 643Q22 659 22 669Q22 670 22 672L21 674Q21 677 19 685T17 697T18 706T28 713Q36 715 45 715T61 716T79 716Q117 719 148 718H280Q306 719 332 718Q367
718 372 715Z" />
<glyph unicode="8" glyph-name="eight" horiz-adv-x="457" d="M288 450Q316 428 334 396Q390 297 355 153Q340 95 329 73T284 14Q239 -23 156 -13T44 49Q15 99 18 251Q20 311 34 374T80 453Q66 466 54 486T34 542T43 612Q66 660 101 683Q114 693 143 697T191 699Q231
695 267 673T312 617Q325 578 319 530T288 450ZM120 584Q113 567 116 540Q119 509 141 498Q165 486 194 492T238 520Q253 539 248 569T220 611Q197 625 164 618T120 584ZM275 178Q286 244 274 305Q268 341 239 368T176 389Q140 383 129 367Q85 316 106 142Q114
75 158 68Q255 53 275 178Z" />
<glyph unicode="9" glyph-name="nine" horiz-adv-x="410" d="M132 700Q232 721 281 670Q317 632 328 515T333 284T311 96Q298 29 236 -2T109 -2Q72 22 56 51Q46 68 42 76T30 102T22 133T31 158Q45 178 72 188T122 193Q141 188 155 170T159 135Q156 129 147 121T131
108T121 93T125 75Q135 60 163 60T204 70Q228 87 240 157T242 255Q232 253 213 246T183 238T151 238Q66 256 38 322Q27 352 21 411Q10 526 29 599Q37 635 66 664T132 700ZM229 349Q249 376 249 497Q249 523 247 541T239 581T219 617T181 631Q132 631 110 573T95
447T131 346Q160 314 200 327Q218 333 229 349Z" />
<glyph unicode=":" glyph-name="colon" horiz-adv-x="190" d="M139 24Q139 16 135 12Q128 -1 110 -5T79 -3Q65 5 61 25T65 59T90 76T119 69Q139 49 137 23L139 25Q140 25 139 24ZM92 391Q114 394 125 371Q137 345 116 325Q106 313 94 311Q75 310 61 325T52 359Q61
384 90 391L91 390H92L91 391H92ZM89 391H92H89Z" />
<glyph unicode=";" glyph-name="semicolon" horiz-adv-x="186" d="M92 -40Q91 -28 104 -13T115 18Q93 1 78 3Q59 7 53 28T58 64Q75 88 101 78T134 40Q139 18 129 -8Q125 -19 118 -28Q103 -48 92 -40ZM74 310Q68 312 62 320T55 331L54 332Q54 332 54 335T52 341Q50
349 54 362T65 381Q81 392 105 386Q120 382 126 367T127 338Q122 322 107 314Q87 304 74 310Z" />
<glyph unicode="&lt;" glyph-name="less" horiz-adv-x="375" d="M324 692Q326 684 241 560T157 423Q158 406 225 296T312 166Q310 160 297 141T277 115Q255 97 229 127Q192 169 81 360Q80 362 72 374T61 394T54 412T51 432T57 448L192 644Q228 701 243 715Q252
724 263 724T283 718T303 705T324 692Z" />
<glyph unicode="=" glyph-name="equal" horiz-adv-x="663" d="M603 533Q610 533 611 509T610 458T603 427Q562 427 389 430T58 433Q53 433 53 456T57 503T69 527Q124 530 302 524T603 533ZM54 301Q62 316 82 317T116 313Q144 311 250 313T477 314T599 305Q603
290 603 254Q603 252 603 246T603 237T603 229T602 221T600 215T596 211T590 209Q200 209 64 222Q55 223 52 251T54 301Z" />
<glyph unicode="&gt;" glyph-name="greater" horiz-adv-x="364" d="M111 718Q121 717 214 574T312 419Q315 415 314 408T312 396Q288 361 230 265T163 152Q161 150 158 142T151 127T143 119Q134 117 128 116T112 119T96 127T81 136T69 144Q65 151 98 210T168 331T207
395Q213 412 163 499T80 620Q77 628 70 640T57 663T50 685Q51 694 75 706T111 718Z" />
<glyph unicode="?" glyph-name="question" horiz-adv-x="416" d="M143 60Q168 68 181 50T189 14Q183 -10 145 -15Q135 -16 124 -4T115 28T143 60ZM285 652Q338 604 341 535Q343 461 323 405T278 321T224 266T187 219Q180 204 188 135Q189 128 188 123T183 115T175
110T164 108T153 107T141 107T129 107Q112 107 103 119T93 150T94 186T101 217Q125 293 207 369Q252 414 260 447Q271 494 250 548Q229 606 198 613Q161 624 121 591Q113 584 113 577T114 564T124 547Q150 505 110 482Q90 469 62 473T22 501Q14 531 21 561T44 619Q82
687 152 697T285 652Z" />
<glyph unicode="@" glyph-name="at" horiz-adv-x="637" d="M412 565Q463 539 500 488T551 378Q578 270 552 125Q543 68 506 22T416 -5Q409 -3 395 7T370 25T358 33Q303 -7 244 34Q201 63 182 131T166 269T190 389Q203 422 233 445T297 467Q315 466 331 455T349
444Q353 450 355 456T359 464T366 467T384 469Q419 469 423 439Q423 436 423 352T423 190T432 114Q427 105 434 92T453 78T474 94Q485 120 492 192T497 294Q478 459 390 499Q344 523 282 516T182 469Q125 407 92 236Q79 185 90 119T139 14Q173 -20 215 -33Q249
-44 282 -21Q307 -4 332 -27T350 -77Q345 -97 320 -107T270 -116Q230 -113 147 -76Q99 -55 69 -16T28 69T18 171T27 276T50 377Q65 433 103 483T190 559T300 586T412 565ZM305 112Q322 126 332 144T345 187T350 227T350 274T349 314Q348 314 347 321T344 338T338
351Q309 398 284 346Q257 291 260 206Q265 116 305 112Z" />
<glyph unicode="A" glyph-name="A" horiz-adv-x="452" d="M32 9Q32 15 30 46Q30 54 37 54Q48 56 55 55Q57 67 60 80T67 105T71 118L90 200Q116 308 127 362Q138 415 152 496Q171 595 182 647Q160 647 152 655Q135 672 138 714Q244 721 259 717Q265 692 270 633T279
552Q293 462 299 436Q308 392 328 304Q333 282 345 224T366 134Q367 127 378 78Q380 72 385 63T391 51H405Q410 52 411 52T414 52T418 50T419 45Q421 31 421 20Q424 6 420 1Q419 0 405 0H374Q367 0 336 1T298 0Q292 -1 290 4Q288 10 287 30T287 51T292 52H307Q305
79 291 124T274 190Q190 198 160 192L138 94L129 51Q133 52 142 52Q151 54 155 50Q157 48 160 35Q161 33 162 28T165 20Q165 19 166 15T168 9Q168 4 154 2Q116 -2 88 1Q80 2 64 2T40 2Q34 2 33 3T32 9ZM206 397Q204 384 195 342T182 274Q241 269 259 276Q250 313
240 382T223 480Q212 438 206 397Z" />
<glyph unicode="B" glyph-name="B" horiz-adv-x="383" d="M41 663Q38 666 37 670T36 679T36 687Q36 690 33 699T31 713Q42 714 65 715T99 717Q104 717 114 717T129 719Q167 721 221 718Q295 713 328 663Q364 609 348 531Q340 492 322 465Q312 451 308 444Q307
440 308 435T313 422T316 413Q339 342 342 240Q346 205 344 153T324 70Q299 27 228 12Q193 5 169 5Q117 1 70 1Q58 1 55 4T50 20Q47 31 48 39T57 50Q63 54 78 52V171Q74 207 74 274T74 356Q68 558 68 660Q47 658 41 663ZM279 217Q279 221 273 308Q269 360 248 377Q241
384 232 387T210 391T190 391T167 388T147 385Q154 298 153 239Q153 130 160 93Q170 95 192 98T231 105T258 116Q283 131 279 217ZM142 634Q140 603 143 543T146 482Q154 483 175 484T206 487T228 495T247 512Q255 526 260 548T265 593T249 626Q229 639 197 640T142
634Z" />
<glyph unicode="C" glyph-name="C" horiz-adv-x="382" d="M87 49Q56 78 43 119T31 200T33 284Q33 318 33 357T33 431T38 503T51 575Q88 716 191 725Q244 728 297 688T350 595L349 594Q351 580 351 573Q353 551 337 535T297 512Q271 505 250 520Q238 528 238 557Q238
563 244 589T245 627Q241 631 238 633Q200 658 170 632Q138 607 128 570T116 479Q112 339 113 269Q113 264 113 242T112 211T114 183T119 152T129 127T145 103Q175 71 207 82Q232 90 252 131Q256 140 264 143T277 147T296 145T314 141Q340 138 345 132Q348 129
348 126T348 119T345 112T340 105T336 99Q309 57 283 32T219 2Q145 -7 87 49Z" />
<glyph unicode="D" glyph-name="D" horiz-adv-x="411" d="M31 28V50Q31 53 31 60T30 74T31 84Q32 89 43 89Q46 89 55 90T70 91Q74 140 73 165Q72 186 70 252T66 354Q64 454 76 545Q77 555 79 587T84 637Q84 644 85 648Q74 648 67 651Q54 656 51 658Q46 660 46
669Q46 676 44 687T42 702Q42 715 51 717Q54 717 58 718T67 719T75 720L104 723Q115 724 135 722T158 719Q170 718 201 716T249 712Q289 705 320 682Q350 663 358 617Q365 582 366 513T368 433Q369 422 375 346T381 229Q379 79 326 31Q319 24 310 20T294 13T274
8T256 5T235 3T216 2Q175 -2 57 8Q35 8 34 10Q31 13 31 28ZM143 246Q143 243 143 225T142 185T141 141T141 105T144 90Q151 90 172 89T206 88T235 92T264 103T284 125Q292 138 296 157T300 187T301 225T300 257Q300 516 295 546Q286 600 265 617Q233 639 159 637L158
635Q158 628 158 597T156 550Q153 516 149 441Q148 409 146 344T143 246Z" />
<glyph unicode="E" glyph-name="E" horiz-adv-x="365" d="M41 3T39 4T34 23Q34 25 32 39T31 62Q31 64 31 69T32 79T36 86H55H65Q66 93 66 107T66 149T67 191Q67 229 67 306T68 422Q70 517 68 612Q68 619 68 626T66 642T65 656Q61 656 55 656T47 655Q40 673 39
689Q39 696 40 710T42 726Q66 729 169 734T326 733Q330 727 333 685T334 622Q294 618 273 619Q261 620 259 631T260 656Q182 660 152 656Q149 645 151 595Q152 583 152 521Q150 421 155 381Q165 382 199 387T255 391Q263 382 263 349T252 311Q236 307 203 306T153
299Q146 205 152 100Q170 94 236 94Q235 97 235 102T234 111Q234 113 232 123T229 138T232 148Q235 150 255 150Q286 155 295 154Q297 147 299 129Q299 124 300 115T303 98T304 89Q307 87 309 65T309 30Q305 13 294 9T259 4Q239 2 158 4Q150 4 108 4T61 3Q41 3
39 4Z" />
<glyph unicode="F" glyph-name="F" horiz-adv-x="362" d="M124 -2Q66 -9 30 -1Q30 45 34 49Q36 51 61 51Q63 52 68 52T75 53V103Q75 122 75 155T76 217T78 271Q89 442 90 499Q90 511 90 548T92 606L95 649Q93 648 89 648T83 647Q68 647 65 645Q61 665 61 673Q61
675 61 682T60 693T60 701Q63 703 82 703Q142 712 237 716Q245 716 260 716T287 717T311 716Q315 716 320 698T327 661T329 642Q329 637 331 627Q329 619 326 617Q320 614 311 614T289 615T273 616Q271 638 270 640Q186 640 177 637Q174 637 176 600L177 562Q178
539 176 493Q165 394 167 356Q183 351 223 357T278 354Q287 308 265 292Q247 288 209 286T166 284Q164 268 156 81Q156 77 156 69T155 56Q173 57 189 56Q189 53 190 41T191 20T188 6Q186 3 182 2T174 1T165 1Q125 -2 124 -2Z" />
<glyph unicode="G" glyph-name="G" horiz-adv-x="390" d="M44 158Q38 187 36 217T34 296T35 356Q35 374 33 415T30 486T35 546Q44 598 54 614Q78 650 116 669Q201 712 283 667Q320 646 336 626V625Q337 624 337 623Q356 604 354 569Q353 528 303 516Q283 512 265
518T243 544Q236 600 211 608Q171 616 141 591Q113 571 115 516Q115 488 113 426T111 330Q111 315 116 230Q117 217 118 187T122 140Q126 98 151 83Q185 61 218 77Q253 96 264 170Q265 174 270 199T275 231T273 261Q273 262 271 264Q259 268 231 265T191 263Q181
264 177 273T173 300T172 320Q171 327 176 331T193 336T213 338T233 339T247 338Q282 338 300 340Q334 344 350 337Q358 311 358 248Q360 178 356 150Q340 45 279 15Q246 0 205 1T130 17Q68 45 44 158Z" />
<glyph unicode="H" glyph-name="H" horiz-adv-x="452" d="M95 -2L36 -3Q35 1 34 7T31 30T32 51Q50 51 59 52Q58 78 59 126T61 194Q61 244 65 344L71 546Q74 615 74 618Q74 623 74 640T76 667H45Q46 674 43 688T40 710Q40 713 46 714T62 715T73 714Q98 719 133
719Q160 719 163 717Q168 713 175 686Q178 672 172 669Q167 667 152 665Q152 661 151 653T149 641L143 572Q142 562 142 457Q142 437 140 401T138 354Q189 346 298 352Q315 514 314 665Q309 666 301 667T289 669Q289 675 288 692T288 719Q290 720 293 720T301 719T308
718Q317 718 334 718T360 717Q365 717 380 719T406 721T418 717Q419 711 420 702T421 681T422 665Q416 665 403 664T388 662Q390 640 387 598T384 545Q382 420 379 358Q378 325 374 265T368 179V86Q368 81 369 69T370 51Q372 51 375 51T379 50Q393 50 396 46Q401
38 401 21T394 1Q391 -1 337 -1T274 -1Q270 35 274 45Q275 52 293 52Q290 86 290 121Q290 144 293 197T296 279Q241 286 197 276Q188 274 165 275T133 276Q132 268 132 228T131 135T129 53Q144 51 156 54Q166 23 156 4Q155 0 141 0Q134 0 95 -2Z" />
<glyph unicode="I" glyph-name="I" horiz-adv-x="213" d="M37 33Q36 35 34 40L31 44Q31 46 31 47T34 49T37 50T43 50T48 50Q50 50 54 50T61 51Q61 57 62 68T63 84Q69 140 71 288Q72 359 63 606Q63 640 64 657V661H43Q43 666 40 685T38 713Q50 712 75 712Q88 716
117 716H123Q145 718 160 715Q163 714 165 713T168 710T169 706T169 701T170 694Q171 690 174 680T178 663Q174 662 155 662L152 617V529Q152 503 149 443T145 351Q145 331 147 268T148 170Q145 138 147 98Q149 55 149 48H174Q183 12 182 1Q134 -2 128 -2Q117 -2
88 -5T44 -7Q44 -6 41 16Q39 28 37 33Z" />
<glyph unicode="J" glyph-name="J" horiz-adv-x="411" d="M360 721Q370 720 374 712T379 687T381 668Q376 667 371 667T359 666T348 665Q349 641 346 611Q339 473 342 412Q345 316 336 209L334 188Q333 156 331 136T318 89T288 44Q253 9 190 1Q186 0 178 0Q134
0 94 35Q54 71 40 154Q36 176 34 221Q34 230 32 249T30 276T32 303Q41 352 73 364Q140 387 164 344Q181 313 156 268Q151 261 140 253T125 241Q116 232 111 218Q113 190 116 176Q121 147 129 129Q129 124 145 103L147 100Q154 95 155 92L162 86Q174 79 179 78Q189
77 207 87L208 88Q237 105 249 147Q262 193 266 301Q267 313 267 336Q269 369 267 436Q265 507 267 543Q268 564 268 607V634Q268 639 268 648T269 662Q265 662 257 663T246 664Q236 664 232 672Q222 701 224 716Q225 721 288 721T360 721Z" />
<glyph unicode="K" glyph-name="K" horiz-adv-x="441" d="M48 715Q73 722 103 722Q111 722 128 722T153 723Q154 716 156 696T160 666Q149 662 140 661Q140 658 140 650T139 639Q138 639 138 608L139 576Q139 571 137 514T138 453Q156 476 174 504T213 567T246
621Q249 627 277 666Q272 666 263 666T250 667Q247 707 254 718Q289 719 306 719T357 717T409 715Q411 680 410 663Q406 663 374 665Q366 654 317 584T242 474T215 427Q215 424 245 354T315 190T373 48H396Q400 48 402 47T406 44T407 41T407 36T407 29Q411 8 409
4Q405 -2 384 0Q381 0 335 1T286 3Q278 2 275 3T270 12Q267 27 269 48Q273 48 285 50L176 327L164 353Q147 332 147 318Q147 310 147 301T147 281T147 263Q147 251 147 167T146 71Q146 70 146 68T145 61T144 53Q157 55 161 52Q164 49 163 33T160 12Q158 6 149 4T131
1T110 1T95 2Q88 2 67 1T34 1Q30 38 34 42Q41 47 56 49L59 88Q60 100 61 364T65 646V663Q54 661 48 665Q40 670 40 704Q41 712 43 713Q44 714 48 715Z" />
<glyph unicode="L" glyph-name="L" horiz-adv-x="339" d="M288 128Q297 116 304 73T307 17V16Q306 16 306 14T305 12L302 14Q288 9 260 8T223 6Q179 -2 120 0Q91 2 84 7Q76 13 71 14Q65 156 65 508V650L31 647Q30 667 33 691Q34 694 34 696T37 699T41 701T46 702T51
703Q106 713 127 707Q144 703 146 690Q148 675 141 552T135 382Q141 185 150 75Q154 74 176 76Q182 77 213 77Q216 77 223 77T233 76Q233 78 232 85T230 97T228 106Q223 122 227 125Q233 129 257 131T288 128Z" />
<glyph unicode="M" glyph-name="M" horiz-adv-x="485" d="M38 4Q36 6 36 10T35 20T35 28Q35 29 33 37T31 50Q47 54 57 54Q57 94 58 176T58 299Q57 369 59 533T70 706Q73 706 91 711T118 713Q122 711 125 706T132 691T136 681Q141 669 165 594T213 451T241 376Q248
386 254 411Q255 412 301 550T353 697Q362 702 387 704T421 701Q421 680 426 408T430 51Q431 51 452 48Q452 42 453 30T455 13Q455 11 455 9Q455 8 454 7Q452 7 451 6Q449 5 443 4T435 3Q391 -4 329 0Q326 5 324 22T323 47Q327 48 334 49T345 51Q346 88 344 164Q344
405 340 414Q294 231 279 211Q271 199 262 197T240 197T218 199Q214 206 199 245T171 324T156 365Q155 367 154 375T148 386Q148 147 143 112Q141 92 141 53H167Q167 48 167 40T166 28Q166 25 166 20T166 11T161 6Q151 1 120 1H114H108H65Q40 1 38 4ZM146 391V387H150Q150
390 149 391H146Z" />
<glyph unicode="N" glyph-name="N" horiz-adv-x="472" d="M56 668Q56 676 55 692T54 717Q64 717 85 717T127 716T149 715Q154 710 157 703T162 684T166 669L185 608Q189 595 196 569T210 522T225 482T246 428T267 374Q281 340 290 323Q294 301 312 271Q314 290
312 386Q311 415 318 501Q321 536 325 615Q326 632 326 666Q321 666 313 665T301 664Q301 673 297 689T293 715Q295 715 311 715T346 716T385 717T419 716T434 713Q436 708 437 693T442 670Q439 667 416 667V634Q414 606 403 382Q401 346 399 249T392 104Q391 93
391 61T390 17Q387 -2 354 -4T309 3Q307 6 305 13T301 24Q277 82 198 328Q196 337 191 358T182 393T171 423T156 453Q158 452 156 446L155 439V409Q156 384 155 357Q154 336 151 299T147 247L142 132Q138 80 138 50Q149 52 152 50T157 27T158 3Q156 1 150 1T136
0T127 -1Q118 -3 93 -2T59 0Q40 -4 37 1Q36 3 35 12T32 32T30 46Q46 48 56 48Q56 49 59 100Q63 170 62 203Q61 244 64 318T67 417Q67 449 70 520T74 630V665L56 668Z" />
<glyph unicode="O" glyph-name="O" horiz-adv-x="404" d="M269 733Q276 727 289 720T312 705T329 686Q336 674 340 661T350 625T357 598Q366 556 366 512Q367 479 371 408Q372 393 372 363T373 318Q374 300 373 268T372 220Q375 167 352 118Q322 52 292 22Q287
17 281 13T267 7T254 3T238 1T224 0T208 0H194Q167 0 139 11Q129 14 113 25T91 40Q89 44 86 48T77 58T70 67Q67 71 66 77T63 90T61 102Q54 146 49 192Q39 298 35 386Q35 397 34 416T33 450T32 480Q32 560 33 568Q37 605 56 652Q65 673 75 686Q80 691 86 695T101
704T114 712Q136 725 162 735T219 747T269 733ZM302 204Q313 276 302 382Q299 409 297 467T290 555Q283 607 267 623Q237 652 192 649Q126 645 111 560Q107 532 106 518Q105 502 106 471T107 430Q105 357 109 335Q115 307 116 252T121 173Q128 132 152 109T215
95Q251 103 273 134T302 204Z" />
<glyph unicode="P" glyph-name="P" horiz-adv-x="378" d="M30 51Q33 51 44 52T61 53L74 663Q52 661 42 662Q41 666 40 672T38 685T36 696Q32 710 35 712Q37 713 39 714Q54 721 90 719H91Q101 721 144 719Q156 719 184 716T228 713Q275 713 305 685Q348 645 348
543Q348 520 346 479T344 426Q342 348 328 322Q312 293 258 274Q236 267 199 268T140 268Q140 262 136 165T132 48Q143 49 165 49Q172 25 173 17Q173 12 172 10T169 7T162 6T154 7Q106 5 80 3Q75 3 60 1T38 -1Q30 42 30 51ZM144 643Q144 632 142 610T139 578Q139
566 139 540T140 502L143 352Q150 352 165 349T190 346Q247 350 265 386Q288 433 282 516Q281 526 271 579Q264 620 250 630Q241 637 202 642Q197 642 183 644T163 646T144 643Z" />
<glyph unicode="Q" glyph-name="Q" horiz-adv-x="394" d="M64 76Q47 109 39 151T31 224T31 305T31 381Q30 401 32 437T34 489Q39 584 43 607Q72 689 153 712Q190 721 233 707T306 665Q333 641 346 599T361 513Q362 430 356 266Q353 191 336 130Q321 74 286 42Q291
-3 306 -45T348 -92Q366 -96 386 -88Q386 -83 384 -72T381 -50T387 -33Q399 -21 426 -22T467 -33Q477 -41 480 -56T477 -84Q472 -95 452 -109Q444 -120 431 -127H430Q414 -137 395 -141Q316 -155 281 -136Q262 -125 245 -93T223 -33Q219 -16 219 5Q151 -13 106
22Q82 39 64 76ZM106 291Q106 282 104 248T104 206Q104 200 107 187T110 168Q114 138 121 124Q133 99 159 89T212 86Q203 116 171 113Q171 125 173 138T178 159L181 166Q218 175 248 147Q251 144 256 139T263 131Q267 140 270 156Q278 180 284 247Q285 257 287
288T289 334T290 374T286 418Q282 450 285 476T287 535T274 592Q259 623 223 636T157 633Q155 632 143 623Q136 617 131 607T124 591T118 571T113 553Q107 533 107 466Q107 443 107 379T106 291Z" />
<glyph unicode="R" glyph-name="R" horiz-adv-x="432" d="M395 57Q396 53 396 49T397 39T398 31Q398 27 399 20T400 8T401 -3Q383 -4 340 -2T278 -3Q275 -3 271 -3T264 -4T259 -5T255 -4T252 0T249 8Q247 12 249 30T251 53Q261 53 281 55Q281 60 281 71T282 88Q286
203 267 247Q236 278 148 256Q148 125 138 51Q151 51 160 55Q160 53 162 43T166 25T168 9T164 -2Q162 -4 137 0Q120 1 86 -1Q40 -9 35 2Q34 5 34 13T33 24Q30 44 33 47Q37 52 56 49Q58 49 60 49T64 50Q62 152 64 372T75 681H74Q47 678 41 679Q38 686 39 706T34
733Q56 735 117 735T199 734Q292 731 328 695Q354 671 365 585T376 444Q376 394 365 359T346 315T323 292Q327 285 338 268T355 239Q363 225 368 170T373 84Q372 74 372 54L395 57ZM302 377Q308 371 300 534Q298 572 296 587Q293 613 282 626T239 648Q194 662 147
652Q147 619 146 555T144 438T148 340Q153 340 174 340T214 340T254 343T288 354T302 377Z" />
<glyph unicode="S" glyph-name="S" horiz-adv-x="402" d="M367 212Q375 181 367 143Q359 85 338 58Q303 18 250 4Q192 -11 147 4Q99 19 66 63Q36 104 36 144Q24 180 58 210T129 231Q145 227 158 214T174 184Q175 178 173 172T168 162T159 151T150 142Q123 112
166 92Q203 76 230 85Q275 102 281 147T264 229Q229 289 142 365Q136 370 122 382T100 402T81 420T62 442T48 466Q30 503 30 557T52 646Q77 686 120 707T213 725Q246 722 274 708Q315 682 325 660Q330 648 341 625Q353 607 356 583V576Q359 535 316 520Q275 505
245 525Q218 543 231 580Q254 644 180 644Q154 643 135 620Q98 574 108 525Q109 519 111 514T116 503T122 493T130 483T138 475T147 465T156 456Q177 434 223 395T290 335Q356 269 367 212Z" />
<glyph unicode="T" glyph-name="T" horiz-adv-x="327" d="M31 665Q31 673 31 693T31 721Q28 723 86 724T215 723T308 715Q309 711 308 702T306 688Q306 685 307 681T308 672T309 664Q306 633 301 629Q288 618 248 627Q248 640 246 646Q239 646 223 646T199 645Q190
415 190 57Q191 57 198 58T210 60Q216 60 219 59T225 54T228 46T231 36Q236 4 234 1T207 -2Q195 -2 160 -3T106 -4Q101 -4 99 -4T95 -2T92 1T91 7Q91 9 88 35Q85 46 94 49T117 50Q119 68 119 561Q118 574 119 604T118 647Q110 648 91 648Q95 630 89 627Q85 626
82 626T72 627T64 628H40Q37 630 35 635T33 644T32 656T31 665Z" />
<glyph unicode="U" glyph-name="U" horiz-adv-x="440" d="M46 719Q57 723 67 723T94 720T115 718H159Q159 713 161 700T164 676T158 661Q150 656 131 654Q130 634 127 586T122 512Q117 403 123 303Q124 288 125 272T129 235T132 203Q139 142 149 121Q165 89 204
82T272 94Q313 119 317 204Q318 256 315 324Q309 502 305 587L302 652Q302 655 301 657Q294 657 292 658Q287 660 285 664T281 676T280 688T280 702T281 712L280 718Q296 719 315 720T356 722T390 724Q398 724 400 723T405 715Q406 708 409 681Q410 672 403 668T384
663Q384 659 384 652T386 640Q396 528 397 427Q399 264 393 207Q379 76 307 29Q265 0 195 0Q167 0 136 22T83 73Q72 88 63 137Q49 214 45 354Q44 417 49 508Q49 525 50 562T53 620V654H34Q34 659 33 672T31 691T34 706T46 719Z" />
<glyph unicode="V" glyph-name="V" horiz-adv-x="447" d="M387 663Q363 525 323 345Q321 333 304 254T271 102T255 23Q256 20 254 12T249 3Q245 3 234 2T213 0T199 3Q196 4 194 11T189 28T185 40Q183 47 165 149Q164 156 143 267T100 498T71 668Q51 668 42 666Q42
670 36 688T32 711Q34 713 54 713Q63 713 83 714T113 717Q159 722 164 717T173 696T176 672Q169 672 157 670Q165 633 182 537T214 371T234 289Q237 298 247 377T269 546T285 661L270 662Q268 705 271 716Q368 723 409 720Q409 715 413 700T416 676Q415 668 413
667Q412 667 409 666Q399 663 387 663Z" />
<glyph unicode="W" glyph-name="W" horiz-adv-x="712" d="M314 619Q323 628 349 626T384 614Q395 603 428 417T471 215Q474 217 487 300T517 505T542 671Q540 671 536 672T528 673T521 674Q523 678 521 698T523 723Q525 726 537 726Q546 726 562 726T586 727Q648
727 660 725Q669 724 672 719T675 705T677 689Q682 681 682 678T671 672Q649 668 638 667Q525 21 521 15Q514 3 483 1T439 4Q436 10 417 109T378 305T357 403Q353 398 348 371T337 310T329 268Q320 227 302 128T284 22Q283 10 267 5Q260 4 241 4T216 5Q205 10 165
159T111 375Q74 548 57 662Q46 660 38 662Q27 705 32 714Q34 719 48 719Q57 720 76 720T105 721H152Q170 724 173 721Q175 719 175 711T177 700Q177 697 177 684T179 667L159 664Q160 650 165 607Q167 592 178 530T203 403T227 283T238 227Q246 235 258 299T281
440T294 526Q295 531 298 554T306 595T314 619Z" />
<glyph unicode="X" glyph-name="X" horiz-adv-x="459" d="M123 721Q125 721 137 722T158 723T170 720Q174 716 174 701T174 678Q176 670 167 667T148 663T137 666Q140 655 145 641Q152 620 176 556T210 455Q215 437 219 433Q222 430 225 436T230 449Q236 467 240
476L270 567L288 618Q305 667 306 670Q305 670 302 670Q292 669 290 676Q288 693 286 697Q280 714 285 718Q291 724 303 724H368Q378 724 400 722Q414 718 416 716Q426 703 429 671Q423 670 394 670H389Q300 421 277 347Q276 346 272 336T265 320T265 308Q266 303
283 257T324 146T360 48H364Q365 48 370 49T378 50T384 50Q388 48 392 34T396 13Q346 1 341 1Q338 1 320 0T299 0Q273 -3 252 -2Q252 1 253 23T248 48Q253 48 263 48T278 49Q241 146 222 200Q218 196 209 172T187 109T165 48Q185 50 189 52Q189 50 192 34T194 9Q191
1 176 -1L105 -4Q99 -4 83 -5T55 -7T33 -2Q33 2 35 8T38 19Q39 22 35 30T31 40Q33 49 84 47Q86 53 88 57Q89 59 112 119T156 236T182 308Q183 311 163 375T113 532T71 667Q53 663 44 664L41 685Q36 706 36 708Q37 711 42 713T53 716L58 717Q67 720 77 720Q93 721
123 721Z" />
<glyph unicode="Y" glyph-name="Y" horiz-adv-x="447" d="M81 658Q78 657 71 657Q56 654 51 660Q48 664 45 673T39 686Q30 703 31 709Q39 710 68 711T124 712L149 713Q170 713 175 708Q178 706 183 692T189 674Q188 664 165 662Q229 451 236 447Q251 474 307 660Q299
659 284 659Q285 665 280 683T278 706Q280 709 309 711T367 713T395 710Q410 710 413 700Q415 693 415 677T417 653Q411 653 399 653T380 652Q374 637 372 627Q370 619 346 538T302 385T280 301Q280 69 279 43Q289 45 294 34Q305 9 304 -8Q284 -6 282 -6T258 -7T236
-10Q233 -10 227 -12T216 -14T206 -15T197 -12T192 -3Q190 4 192 20T198 40Q203 44 217 44Q217 64 218 99T219 141Q215 241 211 295Q206 328 193 356Q185 372 156 452T114 568Q113 571 91 632Q90 636 86 644T81 658Z" />
<glyph unicode="Z" glyph-name="Z" horiz-adv-x="419" d="M357 12Q349 13 227 7T85 3Q83 3 76 3T62 2T47 1T35 3T31 10Q33 21 54 61Q72 96 161 326T279 637Q260 637 226 637T176 638Q186 617 179 607Q173 608 144 604T113 607Q110 610 102 652Q94 686 99 706Q101
714 104 714Q124 712 170 712T259 714T338 717L375 718Q372 691 278 433T179 171Q179 166 152 97Q144 76 160 74T196 76Q200 76 243 80T313 85Q312 88 309 96T306 106T308 113Q315 115 320 115T335 113T348 110Q364 108 376 112Q377 103 379 87T381 63Q393 28 387
17Q384 9 357 12Z" />
<glyph unicode="[" glyph-name="bracketleft" horiz-adv-x="324" d="M283 789Q289 766 271 763Q267 761 237 762T203 764Q153 762 130 762Q138 746 141 459T142 81Q164 77 208 77Q213 77 224 78T242 80T258 80T274 75Q290 67 293 39T281 3Q245 8 193 6T92 5T42
20Q40 30 40 65T41 111Q35 271 35 794Q35 797 33 811T30 836T36 852Q38 854 47 855T70 856T103 856T140 855T179 853T215 851T246 849T268 848L276 847Q279 837 280 818T283 789Z" />
<glyph unicode="\" glyph-name="backslash" horiz-adv-x="460" d="M174 542L199 480Q224 418 260 328T332 145T397 -21T430 -110Q400 -111 344 -106Q326 -71 187 263T42 619Q41 623 38 631T33 645T31 656T31 667T38 676Q45 676 56 680T73 686Q80 687 87 687T104
690Q108 689 115 678T129 650T145 615T159 581T170 554L174 542Z" />
<glyph unicode="]" glyph-name="bracketright" horiz-adv-x="329" d="M297 407Q293 359 296 271T291 95T262 4Q248 2 220 3T177 3Q136 -2 56 10Q51 25 51 47T62 78Q84 82 96 82T133 80T168 77Q172 77 180 77T192 76T201 80T206 90V149Q206 155 212 287T217 458Q217
464 214 591T210 731Q210 735 210 743T209 755Q208 761 207 763T204 767T200 768T194 767T185 766Q175 766 134 765T67 763T36 768Q30 774 30 792Q30 844 46 848Q58 850 131 848T217 845Q232 849 263 847T296 828T298 627T297 407Z" />
<glyph unicode="^" glyph-name="asciicircum" horiz-adv-x="376" d="M308 675Q304 671 278 689T223 729T189 754Q184 756 176 753T162 744T148 732T137 722Q103 695 74 675Q68 670 59 683T41 714T30 735Q162 834 183 846Q189 847 203 838T233 814T251 798Q272
784 332 740L345 731Q326 693 308 675Z" />
<glyph unicode="_" glyph-name="underscore" horiz-adv-x="558" d="M526 -40Q513 -46 306 -48T76 -48Q51 -48 39 -43Q31 -40 34 -36Q34 -33 32 -2T34 31Q36 35 41 37T52 39T64 40T74 40Q148 45 241 47Q258 47 297 48T354 50T410 49Q417 48 446 47T496 45T521 40Q522
34 524 16T527 -11T526 -40Z" />
<glyph unicode="`" glyph-name="grave" horiz-adv-x="147" d="M89 814Q95 814 99 810T106 796T110 780T112 764T113 752Q113 748 114 739T116 724T116 711Q112 696 100 696T79 706Q72 715 63 734T50 759Q49 761 42 769T32 785T32 797Q44 811 89 814Z" />
<glyph unicode="a" glyph-name="a" horiz-adv-x="366" d="M78 35Q48 65 39 103T31 197Q32 233 47 271T88 331Q114 353 151 361T219 353Q221 406 215 423Q210 438 193 447T166 439Q164 435 173 415Q187 382 155 372T99 375Q52 395 84 461Q115 523 171 523Q205 523
237 506T285 461Q291 450 294 438T299 410T301 386T302 357T301 332Q301 310 301 251T300 170Q299 156 299 127T297 82L294 49Q323 51 330 43Q334 37 335 20T335 -6Q319 -8 301 -8T257 -6T230 -5Q229 -2 228 5T225 15Q170 -4 150 -2Q114 -1 78 35ZM108 205Q103
150 107 133Q114 98 142 87T196 101Q219 126 222 172T215 249Q211 265 204 271T180 282Q144 289 127 268Q115 253 108 205Z" />
<glyph unicode="b" glyph-name="b" horiz-adv-x="353" d="M139 3Q135 -2 118 -2Q57 -2 47 3Q38 8 36 31T32 58Q35 58 46 59T63 62V72L60 155Q54 473 54 475Q54 532 62 646Q62 655 63 659Q38 656 33 657Q33 661 32 671T30 687T32 701Q35 707 87 710T142 708Q150
706 154 705V650Q148 622 148 592V552Q144 528 148 519Q181 528 231 512T297 457Q323 393 321 271Q321 257 322 224T323 170T317 122T299 75Q270 27 234 12Q215 5 189 7Q184 7 159 12Q155 13 149 17T139 23Q138 20 139 13T139 3ZM175 449Q159 446 150 435T137 406T134
374T135 339T136 311Q136 234 133 159Q135 148 135 146Q136 140 136 128T139 108Q147 73 185 76Q224 78 237 101Q242 110 244 122T247 152T248 174Q256 237 257 265Q258 286 251 349Q250 355 250 371T247 398T239 419Q229 435 211 444T175 449Z" />
<glyph unicode="c" glyph-name="c" horiz-adv-x="326" d="M102 10Q35 46 33 156Q29 291 34 338Q39 378 51 413T91 478T158 513Q206 518 257 483T291 400Q281 374 242 370T190 392Q188 397 187 407T183 425T171 435Q157 440 142 420Q122 397 110 342Q107 329 103
303Q85 186 97 140Q110 89 145 72Q162 63 177 67T182 92Q171 113 203 132Q230 147 256 132T280 84Q278 63 260 40T222 6Q164 -22 102 10Z" />
<glyph unicode="d" glyph-name="d" horiz-adv-x="381" d="M84 41Q33 110 31 222Q31 305 34 333Q41 413 59 442Q87 487 128 499Q139 503 153 503T175 501T201 495T224 489Q223 524 224 585T225 679Q223 688 221 706Q228 704 236 706H240Q241 706 243 706T247 707Q295
714 311 708Q320 705 323 699T328 678T330 658Q323 654 309 654V537Q306 365 305 343Q298 237 301 152Q304 104 304 56Q343 58 349 50Q351 44 351 37T350 18T348 3Q331 -2 284 -2Q268 -4 260 -4Q258 -4 249 -5T234 -6T224 -2Q224 -1 223 1T220 8T219 16Q216 16
214 15T209 11T204 7Q198 3 183 3Q162 3 138 10Q96 24 84 41ZM105 304Q100 241 101 197Q103 123 131 99Q172 63 205 93Q211 97 219 108Q222 111 220 130Q219 148 219 184Q219 194 221 235T223 300Q223 310 222 330T221 360Q221 371 223 391Q218 399 206 403Q187
413 178 416T155 418T130 401Q123 392 118 378T112 356T108 328T105 304Z" />
<glyph unicode="e" glyph-name="e" horiz-adv-x="354" d="M169 -6Q30 -6 30 278Q30 318 37 357T62 434T111 495T187 518Q215 518 236 507T268 483T286 445T295 406T300 365Q305 320 305 282Q305 264 304 255Q304 247 252 247H229Q215 246 182 242T132 237H123Q111
237 111 232L110 220Q110 209 110 200T111 176T114 148T121 122T132 99T149 83T173 77Q188 77 206 85T228 106Q230 119 215 137T199 164Q195 186 217 195T260 200Q279 196 295 183T320 151Q324 140 324 127Q323 84 278 37Q235 -6 169 -6ZM185 439Q125 439 113 322Q133
318 162 318Q192 318 236 324Q238 334 238 339Q238 351 232 375Q219 439 185 439Z" />
<glyph unicode="f" glyph-name="f" horiz-adv-x="369" d="M101 420Q97 420 82 417T57 414T42 422Q31 435 31 461T46 496Q60 496 105 502Q108 503 110 521T113 561T115 587Q124 625 153 651T222 685Q241 690 271 686T316 668Q334 652 338 629T326 588Q315 575 286
569T242 573Q237 577 234 592T225 612Q215 617 205 605T189 579Q179 556 179 530Q179 528 180 522T181 512T180 504Q190 501 217 504T250 502Q250 501 253 484T256 455T250 438Q242 431 229 429T197 426T173 425Q170 424 169 416T168 395T169 370T170 348T171 336Q172
310 172 179Q172 158 180 53Q180 49 181 47Q202 49 208 40Q212 33 214 19T213 -2Q208 -7 195 -7T164 -7T144 -5Q140 -5 124 -7T98 -10T81 -6Q77 -1 76 17T72 41Q97 46 107 46Q107 80 106 95L103 203Q100 323 101 420Z" />
<glyph unicode="g" glyph-name="g" horiz-adv-x="353" d="M151 19Q107 31 79 68Q40 120 34 234Q23 369 56 448Q77 496 114 517Q141 529 171 529Q181 529 191 526T212 518T231 511Q232 515 230 524T229 539Q232 546 272 548T319 542Q325 534 321 497Q318 497 311
496T301 495L295 420Q294 420 294 292T295 162Q295 147 296 116T297 65T295 19T286 -29Q274 -67 243 -90T169 -118Q158 -120 143 -119T113 -114T89 -101T77 -77Q75 -60 86 -43T113 -20Q138 -13 155 -28Q157 -31 160 -38T168 -50T177 -56Q186 -57 195 -48T210 -28Q211
-26 214 -13T220 12L222 24Q199 19 197 19Q171 14 151 19ZM97 349Q92 292 97 215Q98 195 101 176T113 135T136 101T174 90Q180 91 185 92T194 96T201 102T207 108T212 117T215 125T218 135T220 144T221 154T223 164Q232 238 232 309V372Q232 421 223 430Q208 446
180 452T133 448Q127 445 123 440T115 430T109 417T105 404T102 390T100 376T98 362T97 349Z" />
<glyph unicode="h" glyph-name="h" horiz-adv-x="404" d="M126 -4Q113 -6 98 -6T64 -5T35 -4Q35 -2 33 16T31 42Q38 42 41 43L57 46H56V47Q65 47 69 48Q62 223 66 354L69 489Q70 514 70 565T72 642Q45 640 42 649Q39 657 42 701Q60 703 92 703T147 699Q148 696
148 659T148 571T151 494Q178 495 193 495T229 488T266 469Q289 450 305 412Q326 362 328 247Q330 142 325 71Q325 50 326 46Q365 48 370 38Q372 37 372 25T371 10Q371 7 372 4T373 0T373 -4T369 -8Q365 -11 356 -11T336 -10T321 -8Q314 -7 294 -7T258 -6T239 -2Q234
3 234 26Q234 37 236 38T252 41Q254 42 258 42Q254 52 253 58Q249 81 249 108T250 169T252 219Q252 308 249 330Q246 375 218 406Q206 421 185 424T149 414Q149 413 143 131Q143 102 141 46H166Q166 44 167 32T168 11T165 -2Q159 -11 126 -4Z" />
<glyph unicode="i" glyph-name="i" horiz-adv-x="243" d="M161 585Q165 553 138 536T85 535Q54 566 76 598Q95 626 126 620Q142 617 154 604L155 603L157 601Q165 581 163 583Q162 583 161 585ZM37 41Q42 45 79 48Q76 61 74 87Q71 125 73 259Q75 361 75 375L72
443V447H48Q47 449 41 466T35 494Q47 497 86 501T133 506Q137 506 149 507T171 508T187 504Q185 498 185 486T181 467T167 457Q161 455 159 455Q159 451 159 445T158 434Q157 404 154 357T149 296Q147 256 147 181T147 89Q147 87 146 73T144 50Q173 51 208 41Q208
35 211 19T212 -8Q210 -9 183 -9Q171 -8 148 -10T120 -13Q76 -15 41 -12Q41 -5 37 7T31 26T37 41Z" />
<glyph unicode="j" glyph-name="j" horiz-adv-x="199" d="M3 -113Q-52 -121 -87 -95Q-104 -83 -109 -64T-99 -29Q-97 -27 -96 -27Q-71 -9 -47 -25Q-43 -28 -36 -35T-21 -46T-6 -49Q43 -43 52 37Q56 68 54 129Q54 162 56 229T58 331Q57 382 59 483Q58 483 55 483T50
482Q29 482 28 483Q24 486 22 496T20 519T18 536Q30 537 61 537T109 540Q115 541 161 533Q161 532 165 516T167 494Q162 484 137 486Q136 336 112 61Q107 -8 86 -52Q59 -105 3 -113ZM83 585Q40 600 69 653Q87 663 104 656T128 632Q129 610 116 594T83 585Z" />
<glyph unicode="k" glyph-name="k" horiz-adv-x="426" d="M149 47Q168 49 177 48Q177 42 180 25T183 -3Q166 -4 133 -4T83 -6Q81 -6 71 -7T56 -8T44 -7T34 -1T31 12T32 34T34 49Q44 49 66 51Q66 55 66 61T67 71Q66 111 68 188Q68 219 69 279T70 371V585V644Q54
644 51 653Q50 661 50 667T53 684T55 699Q57 699 110 697T168 695Q168 662 169 646H146Q139 359 146 321Q156 328 164 339T181 365T195 387Q221 424 245 455Q248 458 249 460H220Q219 473 222 515L389 514Q389 490 391 480Q392 478 394 473T396 467T394 461Q391
458 383 458T362 458T349 459H350H351Q339 445 334 440Q309 413 285 382Q255 348 241 330Q235 318 237 315L248 289L299 161Q315 120 329 92L347 52Q358 50 377 49Q377 43 378 29T379 7Q378 -6 373 -8T354 -7Q342 -6 315 -5T266 -1Q266 1 264 13T262 34T263 48L266
51Q258 62 253 80Q239 138 181 245Q159 230 146 207Q143 201 146 161Q149 123 149 47Z" />
<glyph unicode="l" glyph-name="l" horiz-adv-x="217" d="M174 53V52Q178 52 186 50Q185 42 185 29T186 10T185 0Q173 -4 125 -2T61 4Q59 44 61 55Q68 55 82 53Q81 60 81 109Q81 143 79 206T77 289Q76 318 76 389T77 489Q75 571 75 587Q75 599 76 613T78 643T81
669H71Q71 670 71 669T70 669Q45 664 34 672Q32 673 32 682T32 704T31 721Q31 723 61 724T130 726T182 728Q184 712 182 670Q174 670 158 668Q150 622 154 532Q155 499 155 333Q155 302 153 239T150 144Q150 135 150 113T151 81V49Q155 49 157 50Q158 51 162 51Q164
51 168 51T174 53Z" />
<glyph unicode="m" glyph-name="m" horiz-adv-x="630" d="M388 52Q393 45 393 -1Q284 -7 262 -6Q262 3 255 20T249 47Q256 47 272 49Q273 59 271 104T268 152V210Q268 284 267 290Q265 299 265 317T262 344Q261 350 245 401Q226 414 202 410T158 391Q160 358 160
296T162 206Q164 169 161 116Q159 100 159 55Q176 53 181 44Q184 37 184 31T183 14T181 -1H53Q47 -1 45 2T41 14T39 26Q37 31 35 35T32 42T31 52Q45 52 71 54Q70 58 71 105T72 156Q72 182 70 239T69 327Q71 357 73 419V435Q61 432 52 433Q50 474 51 495Q94 506
149 508Q153 505 154 502T156 490T156 479Q211 508 255 501Q274 500 295 484Q303 478 308 469Q314 462 327 469Q333 472 346 480T369 492Q400 501 423 502Q479 507 514 459Q527 443 535 424T547 379T553 338T556 290T559 249Q566 152 566 135Q566 89 567 66L570
51Q593 55 597 41Q599 36 599 20T599 0Q595 -7 545 -9T467 -10Q467 -6 463 13T461 38Q462 41 467 43T479 47T487 49Q490 49 496 51Q496 52 496 54T495 58V75Q487 103 487 192T486 285Q482 315 471 345Q457 386 444 396Q423 413 399 414T356 395Q348 386 344 370T340
341T341 307T342 280Q342 267 341 237T339 194T340 150Q342 122 351 81Q352 71 354 53Q358 52 365 52T379 53T388 52Z" />
<glyph unicode="n" glyph-name="n" horiz-adv-x="398" d="M366 -2Q362 -6 347 -7T314 -8T292 -7Q287 -7 275 -8T253 -9T235 -6Q235 0 228 18T224 45Q225 47 233 48T250 49H258Q257 58 255 71T250 115T248 163Q255 268 244 340Q243 344 242 356T239 373T236 389T231
406T224 420T214 434Q199 438 185 430T164 413T147 386Q132 361 131 316T134 213T139 136Q139 121 141 73T141 8Q135 4 110 2T68 1Q59 1 55 1T45 2T38 6T35 15T37 31Q41 61 43 63Q46 67 57 69Q55 138 57 276T60 451Q40 449 35 456T34 516Q45 517 81 519T125 519Q127
514 128 504T131 488Q191 534 249 503Q295 481 312 380Q323 304 326 208Q330 80 330 56H355Q355 51 359 38T366 13T366 -2Z" />
<glyph unicode="o" glyph-name="o" horiz-adv-x="353" d="M104 475Q183 525 256 484Q312 453 322 330Q324 287 310 142Q308 116 305 100T296 63T276 27T244 3T166 -1Q119 4 86 27Q80 25 67 51Q57 67 53 84Q47 103 40 159Q27 291 35 346Q51 443 104 475ZM256 249Q256
253 256 270T257 296T257 321T254 349T249 373T240 396T226 413T207 425T181 429L179 427Q136 425 115 347Q96 282 95 233Q95 157 109 119Q125 77 180 66Q230 56 240 123Q242 140 248 182T256 249Z" />
<glyph unicode="p" glyph-name="p" horiz-adv-x="372" d="M36 -195Q27 -186 31 -155Q34 -133 44 -134Q46 -134 48 -136H58Q50 -31 57 263Q57 399 68 485Q55 482 45 483Q44 493 47 544Q75 551 125 551Q134 551 144 545Q145 541 145 534T147 522Q210 538 242 528Q281
515 307 474Q348 404 340 263Q339 242 339 225T339 187T335 149Q322 92 296 59Q249 1 185 4Q175 5 159 11T136 19Q135 -69 133 -134H158Q159 -137 160 -142T164 -158T167 -177Q166 -185 159 -189T144 -194T125 -195T108 -194L86 -197Q64 -200 57 -200T36 -195ZM133
195Q133 134 140 119Q183 74 221 89Q252 110 262 170Q276 255 267 363Q264 400 238 438Q217 470 174 449Q148 435 140 380Q136 352 135 322T134 253T133 195Z" />
<glyph unicode="q" glyph-name="q" horiz-adv-x="354" d="M134 6Q126 7 103 25T79 48Q73 54 60 75T43 109Q30 164 30 225Q30 369 66 447Q84 491 133 507Q177 521 235 484Q234 489 233 501T232 516Q265 531 306 520Q329 518 333 509Q335 505 339 485T342 462Q340
455 316 455Q316 446 315 430T314 400T313 375V217Q312 193 310 146T307 74Q306 40 309 -3Q310 -11 309 -22T310 -45T317 -62Q326 -67 332 -67T351 -63T368 -59Q388 -57 392 -79T390 -117Q382 -145 353 -152Q334 -157 316 -154Q282 -149 260 -126Q243 -107 233
-74Q229 -59 225 -26T225 9Q191 -1 172 -1Q165 0 153 2T134 6ZM109 276Q103 183 119 125Q128 89 155 82Q199 69 218 117Q222 127 224 258T223 396Q213 412 200 423T170 434T143 414Q139 407 126 360Q112 307 109 276Z" />
<glyph unicode="r" glyph-name="r" horiz-adv-x="361" d="M269 478Q292 467 310 443T329 393Q330 377 319 363T291 343Q237 320 226 351Q224 356 224 368T222 389T211 402Q200 407 187 394T168 368Q164 359 163 351T162 326T161 309Q160 285 160 276Q160 255 160
211T160 119T160 65Q177 68 191 67Q190 61 190 49T190 28T184 11T168 1Q161 0 145 -2Q138 -3 126 -3Q101 -3 97 -2Q89 -1 74 -1Q73 -1 65 -1T52 -2T40 -1T32 4Q30 8 33 23T35 43Q32 57 34 59Q36 60 48 64Q61 68 89 70Q89 123 85 212T80 307Q78 365 78 393Q78 401
78 417T79 443Q43 437 37 444Q34 447 34 453T35 469T36 480Q36 487 36 490T39 495T45 497T56 499Q60 500 65 500T76 501T86 502Q88 503 127 506Q150 506 153 501T155 486T155 470Q212 491 255 483Q258 482 269 478Z" />
<glyph unicode="s" glyph-name="s" horiz-adv-x="347" d="M161 420Q145 415 133 400T124 369Q128 351 140 334T165 307T199 281T229 258Q306 194 315 147Q317 138 315 109Q315 92 311 77Q304 49 277 30Q259 17 248 11Q171 -16 106 8Q73 18 45 58T44 124Q58 138
80 145T122 145T143 113Q144 100 145 95T152 86T170 82Q210 82 222 115Q230 136 214 161T174 205Q98 257 74 282Q54 304 42 341T33 406Q37 432 57 458Q97 509 150 514Q197 518 257 492Q284 479 305 447T311 382Q300 358 255 349Q217 342 203 362Q197 371 197 391T190
419T161 420Z" />
<glyph unicode="t" glyph-name="t" horiz-adv-x="323" d="M228 112Q254 127 277 100Q291 84 292 59T282 16Q274 3 255 -4T220 -12Q187 -12 157 6T114 53Q105 74 102 96T98 153T97 197Q97 206 95 295T86 430Q62 437 41 435Q36 438 35 442T33 454T34 463Q34 464
32 483T34 502Q66 504 79 504Q83 507 82 536T81 568Q81 570 81 573T82 578Q48 576 44 581Q40 585 45 615Q46 618 46 619T48 622T49 625T51 626T54 627T59 628T65 629Q98 636 111 633Q147 628 161 628Q167 548 169 506Q183 502 211 502T252 498Q264 453 250 443Q245
439 216 439Q176 439 168 437Q165 408 165 376T166 303T167 241Q166 219 171 148Q177 72 197 74Q204 75 213 92T228 112Z" />
<glyph unicode="u" glyph-name="u" horiz-adv-x="469" d="M434 73Q433 66 437 39T434 5Q422 -3 391 -3T294 0Q283 8 280 20Q232 -5 182 4T101 54Q54 115 48 251Q46 275 48 360T52 467V481Q43 478 33 478Q33 480 32 488T31 502T31 514T34 525T41 532Q48 536 60
536T90 536T111 534Q119 534 141 534T171 533Q173 508 171 484H147Q146 480 143 470Q136 444 141 233Q141 173 157 126Q166 99 182 89T230 85Q244 87 259 117T276 164Q281 192 287 411Q288 433 288 476V479Q253 477 252 495L257 525Q251 534 261 539Q272 545 325
547T387 544Q398 538 391 495Q389 494 384 494T376 493Q376 470 376 424T375 354Q375 159 377 72Q387 71 407 72T434 73Z" />
<glyph unicode="v" glyph-name="v" horiz-adv-x="375" d="M338 521Q340 521 340 512T339 501Q340 496 342 488T345 478Q340 478 331 478T316 476Q302 382 273 215T239 35Q235 20 226 4Q223 4 223 3Q222 1 217 0H153L71 467L49 464Q48 466 39 481T31 503Q34 514
86 519Q88 519 96 520T115 523T133 525Q139 526 146 526H147Q164 526 168 520Q170 517 171 503T172 484Q170 484 164 484T155 483Q161 446 170 379T185 262T193 209Q198 215 205 257T222 376T237 477Q225 477 221 485Q220 488 219 500T218 516Q219 519 220 520T221
521T225 522T231 523Q235 524 286 524T338 521Z" />
<glyph unicode="w" glyph-name="w" horiz-adv-x="617" d="M434 523H584Q586 523 586 511T585 485T581 469Q576 464 546 466Q534 397 493 214T444 7Q441 6 437 3T429 -2T414 -3T380 0L366 66Q353 133 336 207T308 299Q300 276 282 204T249 69T231 2Q230 -1 208
-1T170 0Q146 76 104 287Q86 367 73 467Q67 467 55 471T37 474Q37 478 36 485T33 498T30 511T30 521T36 526Q55 529 120 529T192 522Q192 520 194 502T196 481Q193 471 151 471Q158 441 172 376T198 259T213 198Q223 234 242 343T283 507Q304 511 320 510Q325 503
367 354T414 175Q415 203 425 258T448 380T465 467Q445 467 434 468V523Z" />
<glyph unicode="x" glyph-name="x" horiz-adv-x="442" d="M412 472Q392 472 371 469Q361 429 317 345T267 246Q305 152 332 109Q342 93 360 61Q384 63 391 52Q400 37 400 3Q392 2 377 2T354 1Q317 -2 266 2Q266 6 261 22T257 42Q259 48 276 50Q232 124 216 157Q208
143 194 124T171 89T156 53Q188 57 191 41Q193 31 192 22T188 7T183 0H36Q36 4 36 8T35 15Q30 40 31 44Q34 55 79 55Q91 93 128 161T171 244Q127 370 88 449Q86 454 83 461T78 471Q59 469 51 472Q51 475 51 486T51 505T55 517Q61 524 116 524Q183 524 188 522Q191
520 193 514T196 503T197 489T198 479H166Q167 476 169 471T173 462Q177 454 189 429T209 386T221 351Q272 436 286 470Q262 468 257 478Q255 482 255 495T257 512Q260 520 281 522Q389 531 401 525Q408 522 410 512T411 491T412 472Z" />
<glyph unicode="y" glyph-name="y" horiz-adv-x="399" d="M361 503Q363 499 364 487T369 468Q359 467 340 467Q343 450 342 382T340 297L342 233Q343 207 341 160T338 95Q338 76 336 38Q335 -3 312 -61Q300 -93 276 -117T220 -143Q177 -146 139 -118Q123 -106
117 -96Q110 -85 112 -70T125 -45Q143 -29 165 -29Q173 -29 178 -31T191 -38T202 -46Q224 -58 238 -37T254 8Q188 -24 128 26Q84 64 72 173Q65 219 65 353Q65 361 65 378T63 419T62 458Q47 456 32 458Q32 461 31 484T33 509Q37 517 54 517Q110 519 155 516Q157
492 155 467H137Q137 466 134 402Q133 378 137 307T146 211Q147 206 148 193T150 173T153 155T161 137Q167 125 179 114T202 103T227 113T245 131Q251 140 254 149T259 174T262 193Q264 206 263 319T258 453V457Q240 455 236 464Q233 471 236 509Q255 513 277 513Q297
517 329 513H340Q355 514 358 510Q359 508 361 503Z" />
<glyph unicode="z" glyph-name="z" horiz-adv-x="345" d="M305 518Q307 509 300 497T291 480Q251 406 192 256T136 77Q155 76 187 76T231 75Q231 79 229 86T227 99T232 108Q237 114 261 110T292 109Q298 52 293 34Q293 25 292 19T288 8T280 1T272 -3T260 -4T248
-5T234 -4T219 -3Q193 -1 141 -1T66 0Q64 0 59 0T49 -1T40 -2T33 2T30 10Q30 19 112 226T196 448Q182 449 110 439Q122 424 112 414Q108 410 68 410Q55 408 52 411T47 427V490Q47 499 46 503Q55 520 177 522T305 518Z" />
<glyph unicode="{" glyph-name="braceleft" horiz-adv-x="317" d="M266 815Q270 808 271 789T272 753L271 737Q243 745 223 734Q202 722 200 685T204 627Q214 532 161 464Q160 462 151 454T136 438T129 428Q131 422 145 403Q155 398 175 365T200 321Q214 286 218
229Q219 223 219 204T219 168T220 150Q233 109 259 105Q261 105 269 105T282 103T286 92Q287 82 285 61T279 37Q278 37 262 35T227 33T188 41T155 72Q131 117 126 181Q124 205 125 226T125 274T112 317Q101 334 69 356Q53 369 42 391T31 433Q33 461 53 485Q60 494
76 508Q106 532 115 562Q122 584 120 632Q116 660 117 699T134 765Q153 797 189 810Q201 815 225 817Q265 817 266 815Z" />
<glyph unicode="|" glyph-name="bar" horiz-adv-x="168" d="M125 -10Q107 -24 46 -26Q31 -14 30 16T33 64Q40 128 42 290Q46 497 33 743Q33 781 34 800L32 818Q31 836 32 847T41 860Q57 866 93 866Q95 866 101 866T110 866T118 866T126 864T132 861T136 856T138
847Q138 832 135 801T132 754V558Q132 528 128 462T124 361Q124 336 127 267T128 159Q125 123 127 79Q130 8 125 -10Z" />
<glyph unicode="}" glyph-name="braceright" horiz-adv-x="312" d="M62 29Q57 25 55 29T53 37Q48 61 53 110Q106 116 119 146Q127 191 124 231T126 318T153 397Q157 403 167 413T181 430T185 445T173 462Q128 496 120 571Q118 584 117 627T110 693Q106 710 97
717T70 728T44 736Q24 744 35 786Q36 791 37 794T42 800T46 803T52 804T59 805T67 805T75 804Q144 802 169 758Q188 725 195 648T229 536Q233 530 246 515T265 492T276 468T281 439Q279 412 249 375T216 332Q202 307 201 271T204 204T205 139T183 79Q160 47 111
32Q87 26 76 26Q72 25 62 30V29Z" />
<glyph unicode="~" glyph-name="asciitilde" horiz-adv-x="485" d="M411 338Q385 310 344 306T265 312T198 343Q144 381 88 336Q69 319 63 328Q25 366 32 383Q34 388 38 392T49 402T61 410T73 418T83 424Q164 475 229 430Q288 391 315 388Q347 384 364 414Q376
432 403 430T445 413Q453 407 454 399T450 381T438 365T423 349T411 338Z" />
</font>
</defs>
</svg>
